<svg version="1.1" id="Layer_1" xmlns="http://www.w3.org/2000/svg" xmlns:xlink="http://www.w3.org/1999/xlink" x="0px" y="0px"
	 width="100%" viewBox="0 0 90 98" enable-background="new 0 0 90 98" xml:space="preserve">
<path fill="#FEFFFF" opacity="1.000000" stroke="none" 
	d="
M49.000000,99.000000 
	C32.666668,99.000000 16.833340,99.000000 1.000006,99.000000 
	C1.000004,66.333344 1.000004,33.666683 1.000002,1.000020 
	C30.999985,1.000013 60.999969,1.000013 90.999969,1.000006 
	C90.999977,33.666645 90.999977,66.333290 90.999985,98.999969 
	C77.166664,99.000000 63.333332,99.000000 49.000000,99.000000 
M33.612328,41.197727 
	C32.726837,40.809708 31.740625,39.944462 30.971298,40.106831 
	C22.460276,41.903122 13.982908,43.858868 4.526430,45.990078 
	C7.410772,48.449928 9.229070,50.396713 11.404553,51.782951 
	C18.416616,56.251095 23.332714,65.445847 34.043545,62.868076 
	C34.572735,65.564064 34.168640,69.266342 35.797306,70.776855 
	C41.913300,76.449142 48.692539,81.406296 55.980713,87.237457 
	C55.980713,77.959686 56.130764,69.853683 55.857822,61.761936 
	C55.801247,60.084587 54.174076,58.460217 52.925449,56.226936 
	C46.611320,51.428070 40.297188,46.629200 33.612328,41.197727 
M55.773907,33.362892 
	C55.334290,30.788538 55.813511,27.227562 54.294155,25.812595 
	C48.098293,20.042414 41.290901,14.928881 33.941471,8.949054 
	C33.941471,18.601929 33.811047,26.883709 34.056774,35.154312 
	C34.103252,36.718651 35.290993,38.669464 36.555481,39.705704 
	C42.576706,44.640049 48.806320,49.320110 55.365032,54.705883 
	C56.601036,55.114708 57.950123,56.072678 59.055084,55.845142 
	C67.599068,54.085739 76.095840,52.097088 85.428955,49.994320 
	C79.986572,45.651146 75.109047,42.164345 70.721413,38.143017 
	C66.349594,34.136189 61.868248,31.803190 55.773907,33.362892 
z"/>
<path fill="#0EDA87" opacity="1.000000" stroke="none" 
	d="
M54.961784,54.090656 
	C48.806320,49.320110 42.576706,44.640049 36.555481,39.705704 
	C35.290993,38.669464 34.103252,36.718651 34.056774,35.154312 
	C33.811047,26.883709 33.941471,18.601929 33.941471,8.949054 
	C41.290901,14.928881 48.098293,20.042414 54.294155,25.812595 
	C55.813511,27.227562 55.334290,30.788538 55.857498,34.238865 
	C55.614658,41.440109 55.288219,47.765385 54.961784,54.090656 
z"/>
<path fill="#056DAE" opacity="1.000000" stroke="none" 
	d="
M53.270756,56.811432 
	C54.174076,58.460217 55.801247,60.084587 55.857822,61.761936 
	C56.130764,69.853683 55.980713,77.959686 55.980713,87.237457 
	C48.692539,81.406296 41.913300,76.449142 35.797306,70.776855 
	C34.168640,69.266342 34.572735,65.564064 34.099960,62.223289 
	C34.156376,61.578506 34.302216,61.108887 34.692844,61.079838 
	C41.145901,59.637669 47.208328,58.224552 53.270756,56.811432 
z"/>
<path fill="#06F0D1" opacity="1.000000" stroke="none" 
	d="
M55.163406,54.398270 
	C55.288219,47.765385 55.614658,41.440109 55.944069,34.661385 
	C61.868248,31.803190 66.349594,34.136189 70.721413,38.143017 
	C75.109047,42.164345 79.986572,45.651146 85.428955,49.994320 
	C76.095840,52.097088 67.599068,54.085739 59.055084,55.845142 
	C57.950123,56.072678 56.601036,55.114708 55.163406,54.398270 
z"/>
<path fill="#BEE3F7" opacity="1.000000" stroke="none" 
	d="
M34.302216,61.108887 
	C34.302216,61.108887 34.156376,61.578506 34.045277,61.797813 
	C23.332714,65.445847 18.416616,56.251095 11.404553,51.782951 
	C9.229070,50.396713 7.410772,48.449928 4.526430,45.990078 
	C13.982908,43.858868 22.460276,41.903122 30.971298,40.106831 
	C31.740625,39.944462 32.726837,40.809708 33.819065,41.996426 
	C34.117943,48.899712 34.210079,55.004299 34.302216,61.108887 
z"/>
<path fill="#3594CA" opacity="1.000000" stroke="none" 
	d="
M34.692844,61.079838 
	C34.210079,55.004299 34.117943,48.899712 34.004429,42.312729 
	C40.297188,46.629200 46.611320,51.428070 53.098103,56.519184 
	C47.208328,58.224552 41.145901,59.637669 34.692844,61.079838 
z"/>
</svg>